<svg width="235" height="229" viewBox="0 0 235 229" fill="none" xmlns="http://www.w3.org/2000/svg">
<path d="M145.978 193.142C159.095 188.381 161.799 179.634 161.511 175.855C162.201 176.535 163.525 175.572 164.1 175.005L163.525 178.689C163.045 180.578 160.936 185.547 156.333 190.308C152.881 193.879 148.782 195.973 145.978 196.996L150.58 201.928H151.156C153.169 201.928 160.936 195.126 164.1 191.159C167.264 187.191 168.702 181.806 168.702 179.256C168.702 177.215 167.168 175.194 166.401 174.438L171.291 176.705C171.483 176.989 171.637 178.462 170.716 182.09C169.565 186.624 165.251 193.142 163.525 195.126C161.799 197.11 155.758 202.778 152.594 204.478C150.062 205.838 150.197 206.745 150.58 207.029L175.606 228C164.963 221.104 143.561 207.142 143.101 206.462C142.641 205.782 143.293 203.156 143.676 201.928L140.8 198.81L143.676 197.677C143.446 194.503 145.115 193.331 145.978 193.142Z" fill="#F18324"/>
<path d="M1 109.257V106.99H234L233.712 108.69H197.756C193.153 108.69 181.742 114.453 178.003 115.775C133.8 115.775 48.7233 116.409 47.3425 116.409C45.9618 116.409 35.9021 110.391 31.4914 109.257H1Z" fill="#F18324"/>
<path d="M41.2716 66.4644C34.1378 74.3995 28.3272 89.4195 26.3136 95.9376C27.004 86.1888 34.4638 71.66 38.1074 65.6142C40.8881 60.7965 49.7862 48.8939 63.1333 39.8252C76.4805 30.7565 95.1588 26.4111 102.83 25.372C110.596 24.6163 129.869 24.5218 144.827 30.1897C163.525 37.2746 177.332 50.5942 183.948 58.5293C190.564 66.4644 196.03 79.5006 197.18 82.3346C198.331 85.1685 201.495 97.3545 202.07 101.039C202.531 103.986 201.879 104.156 201.495 103.873C201.035 100.699 199.769 94.9929 199.194 92.5368C196.662 80.9742 187.016 68.0703 182.51 63.0636C180.113 60.4186 173.132 53.5982 164.388 47.4769C153.457 39.8252 146.841 38.1249 134.759 34.4407C125.094 31.4934 108.103 31.8901 100.816 32.4569C97.9395 32.8348 90.6331 34.1006 84.4198 36.1411C78.2064 38.1815 69.5576 42.8481 66.0099 44.9263C55.8844 49.9141 45.2988 61.3633 41.2716 66.4644Z" fill="#F18324"/>
<path d="M55.079 62.2135C46.3343 69.015 37.4362 85.4519 34.0802 92.8202C38.1074 81.201 42.7099 75.2497 50.1889 65.6142C57.6679 55.9788 69.1741 49.1773 78.379 44.9263C87.5839 40.6754 100.816 38.4082 116.349 38.1248C128.776 37.8981 136.293 40.2975 138.499 41.5256C130.444 39.7119 118.651 39.6363 113.76 39.8252C105.706 39.8252 96.0218 41.9035 92.1864 42.9426C89.5975 43.6038 82.6938 45.6065 75.7901 48.3271C68.8864 51.0477 59.1062 58.7183 55.079 62.2135Z" fill="#F18324"/>
<path d="M126.705 16.5868C123.023 17.7203 121.527 21.2156 121.24 22.8215C121.24 21.9713 121.24 18.8539 122.965 16.8702C124.691 14.8864 128.143 14.0362 129.006 12.9026C129.869 11.769 129.869 8.93508 129.294 7.5181C128.834 6.38452 127.568 6.10112 126.993 6.10112V8.36829H105.994V7.23471H104.556V8.36829H99.0901V6.10112C95.9259 6.38452 96.5012 8.36829 96.7889 11.2022C97.019 13.4694 100.528 15.5476 102.254 16.3034C103.788 17.5314 106.684 20.5543 105.994 22.8215C105.303 25.0886 105.131 24.3329 105.131 23.6717C105.323 22.2547 104.728 19.0806 100.816 17.7203C96.904 16.36 94.7753 14.3196 94.2 13.4694C93.6247 11.8635 92.7617 8.08489 93.9123 5.81773C95.063 3.55056 97.6518 3.1727 98.8025 3.26717V1H103.693V1.85019H105.419V1H120.089V1.85019H122.102V1H126.705V3.26717C130.157 3.55056 131.595 4.96754 132.17 6.66791C132.746 8.36829 132.17 13.186 131.595 12.9026C131.499 13.6583 130.387 15.4532 126.705 16.5868Z" fill="#F18324"/>
<path d="M143.676 197.677C143.446 194.503 145.115 193.331 145.978 193.142C159.095 188.381 161.799 179.634 161.511 175.855C162.201 176.535 163.525 175.572 164.1 175.005L163.525 178.689C163.045 180.578 160.936 185.547 156.333 190.308C152.881 193.879 148.782 195.973 145.978 196.996M143.676 197.677C144.252 197.559 145.043 197.337 145.978 196.996M143.676 197.677L140.8 198.81L143.676 201.928C143.293 203.156 142.641 205.782 143.101 206.462C143.561 207.142 164.963 221.104 175.606 228L150.58 207.029C150.197 206.745 150.062 205.838 152.594 204.478C155.758 202.778 161.799 197.11 163.525 195.126C165.251 193.142 169.565 186.624 170.716 182.09C171.637 178.462 171.483 176.989 171.291 176.705L166.401 174.438C167.168 175.194 168.702 177.215 168.702 179.256C168.702 181.806 167.264 187.191 164.1 191.159C160.936 195.126 153.169 201.928 151.156 201.928C149.545 201.928 150.101 201.928 150.58 201.928L145.978 196.996M1 106.99V109.257H31.4914C35.9021 110.391 45.9618 116.409 47.3425 116.409C48.7233 116.409 133.8 115.775 178.003 115.775C181.742 114.453 193.153 108.69 197.756 108.69C202.358 108.69 223.644 108.69 233.712 108.69L234 106.99H1ZM26.3136 95.9376C28.3272 89.4195 34.1378 74.3995 41.2716 66.4644C45.2988 61.3633 55.8844 49.9141 66.0099 44.9264C69.5576 42.8481 78.2064 38.1815 84.4198 36.1411C90.6331 34.1006 97.9395 32.8348 100.816 32.4569C108.103 31.8901 125.094 31.4934 134.759 34.4407C146.841 38.1249 153.457 39.8252 164.388 47.4769C173.132 53.5982 180.113 60.4186 182.51 63.0636C187.016 68.0703 196.662 80.9742 199.194 92.5368C199.769 94.9929 201.035 100.699 201.495 103.873C201.879 104.156 202.531 103.986 202.07 101.039C201.495 97.3545 198.331 85.1685 197.18 82.3346C196.03 79.5006 190.564 66.4644 183.948 58.5293C177.332 50.5942 163.525 37.2746 144.827 30.1897C129.869 24.5218 110.596 24.6163 102.83 25.372C95.1588 26.4111 76.4805 30.7566 63.1333 39.8252C49.7862 48.8939 40.8881 60.7965 38.1074 65.6142C34.4638 71.66 27.004 86.1888 26.3136 95.9376ZM34.0802 92.8202C37.4362 85.4519 46.3343 69.015 55.079 62.2135C59.1062 58.7183 68.8864 51.0477 75.7901 48.3271C82.6938 45.6065 89.5975 43.6038 92.1864 42.9426C96.0218 41.9034 105.706 39.8252 113.76 39.8252C118.651 39.6363 130.444 39.7119 138.499 41.5256C136.293 40.2975 128.776 37.8981 116.349 38.1248C100.816 38.4082 87.5839 40.6754 78.379 44.9264C69.1741 49.1773 57.6679 55.9788 50.1889 65.6142C42.7099 75.2497 38.1074 81.201 34.0802 92.8202ZM121.24 22.8215C121.527 21.2156 123.023 17.7203 126.705 16.5868C130.387 15.4532 131.499 13.6583 131.595 12.9026C132.17 13.186 132.746 8.36829 132.17 6.66791C131.595 4.96754 130.157 3.55056 126.705 3.26717V1H122.102V1.85019H120.089V1H105.419V1.85019H103.693V1H98.8025V3.26717C97.6518 3.1727 95.063 3.55056 93.9123 5.81773C92.7617 8.08489 93.6247 11.8635 94.2 13.4694C94.7753 14.3196 96.904 16.36 100.816 17.7203C104.728 19.0806 105.323 22.2547 105.131 23.6717C105.131 24.3329 105.303 25.0886 105.994 22.8215C106.684 20.5543 103.788 17.5314 102.254 16.3034C100.528 15.5476 97.019 13.4694 96.7889 11.2022C96.5012 8.36829 95.9259 6.38452 99.0901 6.10112V8.36829H104.556V7.23471H105.994V8.36829H126.993V6.10112C127.568 6.10112 128.834 6.38452 129.294 7.5181C129.869 8.93508 129.869 11.769 129.006 12.9026C128.143 14.0362 124.691 14.8864 122.965 16.8702C121.24 18.8539 121.24 21.9713 121.24 22.8215Z" stroke="#F18324"/>
<path d="M59.3939 112.658H74.0642C76.3655 112.658 83.5568 119.743 88.7346 123.143C89.1173 123.395 89.5346 123.68 89.9846 123.994C89.5679 122.955 88.3319 120.31 86.721 118.042C85.1102 115.775 84.7074 113.508 84.7074 112.658C85.7622 112.563 88.0442 112.374 88.7346 112.374C89.5976 112.374 90.4605 112.658 93.0494 114.925C95.1205 116.739 97.556 122.293 98.5148 124.844C96.4054 122.104 91.8413 116.512 90.4605 116.059C88.7346 115.492 88.7346 116.059 88.7346 117.759C88.7346 119.119 91.0358 123.517 92.1865 125.546C98.1832 129.778 107.841 136.335 118.651 137.03C129.236 137.71 135.526 132.779 137.348 130.228C139.266 127.017 143.562 120.196 145.402 118.609C147.243 117.022 150.58 115.114 152.019 114.358C153.169 113.98 155.816 113.168 157.196 112.941C158.922 112.658 152.306 115.775 150.293 119.176C148.279 122.577 143.101 130.512 141.663 133.346C140.225 136.18 133.033 142.698 122.103 142.131C113.358 141.678 101.2 136.652 96.2136 134.196C93.433 132.496 86.606 128.075 81.5432 123.994C75.2148 118.893 70.6124 115.208 68.8865 114.925C67.5057 114.698 61.9827 113.319 59.3939 112.658Z" fill="#F18324"/>
<path d="M158.347 127.678C159.267 120.876 163.716 115.964 165.826 114.358C160.993 116.172 157.1 119.837 155.758 121.443C154.895 122.766 153.054 126.374 152.594 130.228C152.134 134.083 152.402 146.571 152.594 152.333C152.402 154.978 151.558 160.665 149.717 162.252C147.876 163.839 148.183 166.314 148.567 167.353C151.251 169.243 157.139 173.361 159.21 174.722C161.799 176.422 162.662 176.138 164.675 174.722C166.286 173.588 171.1 176.138 173.305 177.555L196.03 188.608L194.879 187.474C186.921 182.09 170.831 171.321 170.141 171.321C169.278 171.321 167.264 171.888 164.675 170.187C162.604 168.827 160.744 169.054 160.073 169.337L153.169 164.803C156.621 161.175 157.292 153.278 157.196 149.783C157.196 145.248 157.426 134.479 158.347 127.678Z" fill="#F18324"/>
<path d="M60.2568 114.925C61.791 115.492 65.6647 117.362 68.8865 120.31C72.1082 123.257 77.1325 128.717 79.242 131.079C82.0889 134.007 88.223 140.147 89.9846 141.281C92.1865 142.698 100.816 148.932 100.816 149.783C100.816 150.633 100.241 151.483 98.5148 151.2C96.7889 150.916 100.241 150.066 93.0494 146.099C85.8581 142.131 77.8037 134.196 76.6531 133.346C75.9357 132.816 71.7519 126.777 67.4482 121.687C68.5988 123.684 71.5329 128.811 74.0642 133.346C76.5956 137.88 84.5157 145.059 88.1593 148.082L131.307 181.24L145.978 193.142C146.841 192.859 148.164 192.462 146.553 193.142C144.942 193.822 141.088 193.426 139.362 193.142L111.459 172.454C103.501 165.936 86.7786 152.277 83.5568 149.783C79.5297 146.665 75.2148 142.131 73.4889 139.297C72.1082 137.03 66.777 124.276 64.284 118.183C62.801 116.676 61.4081 115.492 60.2568 114.925Z" fill="#F18324"/>
<path d="M89.9846 123.994C89.5346 123.68 89.1173 123.395 88.7346 123.143C83.5568 119.743 76.3655 112.658 74.0642 112.658C72.2232 112.658 63.5169 112.658 59.3939 112.658C61.9827 113.319 67.5057 114.698 68.8865 114.925C70.6124 115.208 75.2148 118.893 81.5432 123.994C86.606 128.075 93.433 132.496 96.2136 134.196C101.2 136.652 113.358 141.678 122.102 142.131C133.033 142.698 140.225 136.18 141.663 133.346C143.101 130.512 148.279 122.577 150.293 119.176C152.306 115.775 158.922 112.658 157.196 112.941C155.816 113.168 153.169 113.98 152.019 114.358C150.58 115.114 147.243 117.022 145.402 118.609C143.562 120.196 139.266 127.017 137.348 130.228C135.526 132.779 129.236 137.71 118.651 137.03C107.841 136.335 98.1832 129.778 92.1865 125.546M89.9846 123.994C89.5679 122.955 88.3319 120.31 86.721 118.042C85.1102 115.775 84.7074 113.508 84.7074 112.658C85.7622 112.563 88.0442 112.374 88.7346 112.374C89.5976 112.374 90.4605 112.658 93.0494 114.925C95.1205 116.739 97.556 122.293 98.5148 124.844C96.4054 122.104 91.8413 116.512 90.4605 116.059C88.7346 115.492 88.7346 116.059 88.7346 117.759C88.7346 119.119 91.0358 123.517 92.1865 125.546M89.9846 123.994C90.6492 124.457 91.3851 124.981 92.1865 125.546M64.284 118.183C62.801 116.676 61.4081 115.492 60.2568 114.925C61.791 115.492 65.6647 117.362 68.8865 120.31C72.1082 123.257 77.1325 128.717 79.242 131.079C82.0889 134.007 88.223 140.147 89.9846 141.281C92.1865 142.698 100.816 148.932 100.816 149.783C100.816 150.633 100.241 151.483 98.5148 151.2C96.7889 150.916 100.241 150.066 93.0494 146.099C85.8581 142.131 77.8037 134.196 76.6531 133.346C75.9357 132.816 71.7519 126.777 67.4482 121.687M64.284 118.183C66.777 124.276 72.1082 137.03 73.4889 139.297C75.2148 142.131 79.5297 146.665 83.5568 149.783C86.7786 152.277 103.501 165.936 111.459 172.454L139.362 193.142C141.088 193.426 144.942 193.822 146.553 193.142C148.164 192.462 146.841 192.859 145.978 193.142L131.307 181.24L88.1593 148.082C84.5157 145.059 76.5956 137.88 74.0642 133.346C71.5329 128.811 68.5988 123.684 67.4482 121.687M64.284 118.183C65.3123 119.228 66.3839 120.429 67.4482 121.687M165.826 114.358C163.716 115.964 159.267 120.876 158.347 127.678C157.426 134.479 157.196 145.248 157.196 149.783C157.292 153.278 156.621 161.175 153.169 164.803L160.073 169.337C160.744 169.054 162.604 168.827 164.675 170.187C167.264 171.888 169.278 171.321 170.141 171.321C170.831 171.321 186.921 182.09 194.879 187.474L196.03 188.608L173.305 177.555C171.1 176.138 166.286 173.588 164.675 174.722C162.662 176.138 161.799 176.422 159.21 174.722C157.139 173.361 151.251 169.243 148.567 167.353C148.183 166.314 147.876 163.839 149.717 162.252C151.558 160.665 152.402 154.978 152.594 152.333C152.402 146.571 152.134 134.083 152.594 130.228C153.054 126.374 154.895 122.766 155.758 121.443C157.1 119.837 160.993 116.172 165.826 114.358Z" stroke="#F18324"/>
<path d="M111.781 59.5069C114.373 55.4145 109.837 48.6364 107.245 45.7589L108.029 45.427C106.607 45.7053 105.152 46.0353 103.68 46.3983C98.4957 47.6771 93.0951 52.6862 91.0429 55.0308C90.6109 55.0308 88.9043 56.4376 85.5344 62.0647C83.3501 65.7119 82.4727 68.0698 82.1341 70.7429L82.9421 67.8197C83.2661 70.0578 84.8215 75.1094 88.4507 77.4114C92.9872 80.2889 95.2554 79.3298 95.2554 80.6086C95.2554 81.8875 94.2833 82.527 95.2554 84.4453C96.0331 85.98 99.8999 89.9872 101.736 91.7989C100.332 91.5858 97.1996 90.7758 95.9035 89.2412C94.2833 87.3228 93.9593 81.8875 92.3391 81.8875C90.7189 81.8875 86.1824 78.3706 85.5344 77.4114C85.0304 76.6656 83.0571 73.2415 82.0542 71.4844C81.8478 73.7817 81.97 76.4027 81.97 80.2889C81.97 89.2411 88.4507 95.9553 91.0429 99.1526L91.1035 99.2273C93.6711 102.395 95.9894 105.255 106.921 108.744C115.734 111.558 125.715 108.424 129.603 106.506L132.843 107.465C130.899 109.064 118.91 113.54 108.217 111.622C99.6622 110.087 93.2031 105.014 91.0429 102.67C89.2067 101.284 84.8215 96.6587 81.97 89.2412C79.1185 81.8236 79.7017 72.7221 80.3498 69.0986C81.6459 62.9173 87.997 49.4037 103.032 44.7997C118.067 40.1957 130.467 45.226 134.788 48.3166C138.244 50.5547 146.064 58.1641 149.693 70.6972C153.323 83.2304 144.941 96.8079 140.296 102.03H137.704L139 100.431L144.185 93.7173C145.554 92.0121 148.379 86.3636 148.721 77.4114C148.891 72.9682 147.802 68.7267 146.103 64.9469C143.694 65.0089 138.951 65.7059 136.732 68.1395C134.399 70.6972 134.896 73.4682 135.436 74.5339C137.704 76.2391 142.046 80.3529 141.268 83.1664C140.296 86.6834 140.296 87.6425 136.732 91.1595C133.88 93.973 133.167 95.9553 133.167 96.5948V101.391H131.223C130.791 99.6854 130.186 95.7635 131.223 93.7173C132.519 91.1595 137.38 88.9214 137.704 86.6834C138.028 84.4453 139.324 82.527 137.38 80.2889C135.436 78.0509 133.815 77.0917 132.843 74.2142C131.871 71.3367 132.519 67.5 135.436 65.5817C137.719 64.0794 142.673 63.0674 145.009 62.7254C143.879 60.6147 142.582 58.6823 141.252 56.9815C140.798 57.8504 139.292 59.7755 136.732 60.7858C133.491 62.0647 134.463 61.4253 131.547 61.4253C128.631 61.4253 129.927 60.4661 127.335 59.5069C124.742 58.5478 125.066 60.1464 123.122 61.4253C121.178 62.7042 120.206 62.3844 118.91 61.4253C117.614 60.4661 117.938 58.5478 117.938 55.99C117.938 53.4322 120.53 50.8744 118.91 49.5955C117.614 48.5724 114.913 45.972 113.725 44.7997H116.966C118.154 45.8654 120.66 48.1888 121.178 48.9561C121.826 49.9153 122.15 52.1533 121.178 52.7928C120.206 53.4322 118.91 57.5886 119.882 59.5069C120.854 61.4253 122.15 58.8675 124.094 57.5886C126.039 56.3097 128.631 56.9492 129.603 58.2281C130.575 59.5069 132.843 60.1464 135.436 59.5069C137.291 59.0493 139.112 56.8513 140.016 55.4775C138.772 54.0348 137.534 52.8059 136.408 51.8335C131.223 47.3574 125.391 46.3983 120.854 45.1194C117.757 44.2461 113.904 44.4164 109.708 45.1211L112.429 49.5955C113.401 51.1942 115.021 55.4145 113.725 59.5069C112.105 64.6225 111.781 61.745 108.217 65.5817C104.652 69.4183 108.865 70.0578 111.781 71.3367C114.697 72.6156 115.994 73.255 116.966 75.4931C117.938 77.7311 116.318 81.8875 115.345 83.1664C114.568 84.1895 115.021 88.9214 115.345 91.1595C115.021 92.7581 113.984 96.1472 112.429 96.9145C110.874 97.6818 110.485 96.5948 110.485 95.9553C110.917 95.7422 112.04 94.6125 113.077 91.7989C114.373 88.282 113.725 84.1256 113.725 81.8875C113.725 79.6495 117.938 76.1325 113.725 74.5339C109.513 72.9353 107.245 71.6564 106.272 70.6972C105.3 69.7381 104.976 69.4183 104.976 66.8606C104.976 64.3028 108.541 64.6225 111.781 59.5069Z" fill="#F18324"/>
<path d="M102.384 99.1526C102.125 97.8737 100.98 98.1934 100.44 98.5131C99.9604 100.112 100.44 102.35 100.764 103.948C101.088 105.547 104.652 105.547 105.3 104.268C105.948 102.989 108.217 102.989 109.189 102.03C110.161 101.071 108.217 100.431 106.921 100.431C105.624 100.431 104.328 102.67 103.032 102.67C101.736 102.67 102.708 100.751 102.384 99.1526Z" fill="#F18324"/>
<path d="M107.245 45.7589C109.837 48.6364 114.373 55.4145 111.781 59.5069C108.541 64.6225 104.976 64.3028 104.976 66.8606C104.976 69.4183 105.3 69.7381 106.272 70.6972C107.245 71.6564 109.513 72.9353 113.725 74.5339C117.938 76.1325 113.725 79.6495 113.725 81.8875C113.725 84.1256 114.373 88.282 113.077 91.7989C112.04 94.6125 110.917 95.7422 110.485 95.9553C110.485 96.5948 110.874 97.6818 112.429 96.9145C113.984 96.1472 115.021 92.7581 115.345 91.1595C115.021 88.9214 114.568 84.1895 115.345 83.1664C116.318 81.8875 117.938 77.7311 116.966 75.4931C115.994 73.255 114.697 72.6156 111.781 71.3367C108.865 70.0578 104.652 69.4183 108.217 65.5817C111.781 61.745 112.105 64.6225 113.725 59.5069C115.021 55.4145 113.401 51.1942 112.429 49.5955L109.513 44.7997L107.245 45.7589ZM113.725 44.7997C114.913 45.972 117.614 48.5724 118.91 49.5955C120.53 50.8744 117.938 53.4322 117.938 55.99C117.938 58.5478 117.614 60.4661 118.91 61.4253C120.206 62.3844 121.178 62.7042 123.122 61.4253C125.066 60.1464 124.742 58.5478 127.335 59.5069C129.927 60.4661 128.631 61.4253 131.547 61.4253C134.463 61.4253 133.491 62.0647 136.732 60.7858C139.324 59.7627 140.836 57.8018 141.268 56.9492L140.296 55.0308C139.54 56.3097 137.509 58.9954 135.436 59.5069C132.843 60.1464 130.575 59.5069 129.603 58.2281C128.631 56.9492 126.039 56.3097 124.094 57.5886C122.15 58.8675 120.854 61.4253 119.882 59.5069C118.91 57.5886 120.206 53.4322 121.178 52.7928C122.15 52.1533 121.826 49.9153 121.178 48.9561C120.66 48.1888 118.154 45.8654 116.966 44.7997H113.725ZM145.157 62.7042L146.453 64.9422C144.185 64.9422 139.065 65.5817 136.732 68.1395C134.399 70.6972 134.896 73.4682 135.436 74.5339C137.704 76.2391 142.046 80.3529 141.268 83.1664C140.296 86.6834 140.296 87.6425 136.732 91.1595C133.88 93.9731 133.167 95.9553 133.167 96.5948V101.391H131.223C130.791 99.6854 130.186 95.7635 131.223 93.7173C132.519 91.1595 137.38 88.9214 137.704 86.6834C138.028 84.4453 139.324 82.527 137.38 80.2889C135.436 78.0509 133.815 77.0917 132.843 74.2142C131.871 71.3367 132.519 67.5 135.436 65.5817C137.769 64.047 142.888 63.0239 145.157 62.7042ZM100.44 98.5131C100.98 98.1934 102.125 97.8737 102.384 99.1526C102.708 100.751 101.736 102.67 103.032 102.67C104.328 102.67 105.624 100.431 106.921 100.431C108.217 100.431 110.161 101.071 109.189 102.03C108.217 102.989 105.948 102.989 105.3 104.268C104.652 105.547 101.088 105.547 100.764 103.948C100.44 102.35 99.9604 100.112 100.44 98.5131ZM82.9421 67.8197C83.2661 70.0578 84.8215 75.1094 88.4507 77.4114C92.9872 80.2889 95.2554 79.3297 95.2554 80.6086C95.2554 81.8875 94.2833 82.527 95.2554 84.4453C96.0331 85.98 99.8999 89.9872 101.736 91.7989C100.332 91.5858 97.1996 90.7758 95.9035 89.2412C94.2833 87.3228 93.9593 81.8875 92.3391 81.8875C90.7189 81.8875 86.1824 78.3706 85.5344 77.4114C85.0159 76.6441 82.9421 73.0419 81.97 71.3367L82.9421 67.8197ZM137.704 102.03H140.296C144.941 96.8079 153.323 83.2304 149.693 70.6972C146.064 58.1641 138.244 50.5547 134.788 48.3166C130.467 45.226 118.067 40.1957 103.032 44.7997C87.997 49.4037 81.6459 62.9173 80.3498 69.0986C79.7017 72.7221 79.1185 81.8236 81.97 89.2412C84.8215 96.6587 89.2067 101.284 91.0429 102.67C93.2031 105.014 99.6622 110.087 108.217 111.622C118.91 113.54 130.899 109.064 132.843 107.465L129.603 106.506C125.715 108.424 115.734 111.558 106.921 108.744C95.9035 105.227 93.6352 102.35 91.0429 99.1526C88.4507 95.9553 81.97 89.2412 81.97 80.2889C81.97 71.3367 81.3219 69.0985 85.5344 62.0647C88.9043 56.4376 90.6109 55.0308 91.0429 55.0308C93.0951 52.6862 98.4957 47.6771 103.68 46.3983C110.161 44.7997 116.318 43.8405 120.854 45.1194C125.391 46.3983 131.223 47.3574 136.408 51.8335C141.592 56.3097 149.149 66.2212 148.721 77.4114C148.379 86.3636 145.554 92.0121 144.185 93.7173L139 100.431L137.704 102.03Z" stroke="#F18324"/>
</svg>
