<svg width="24" height="24" viewBox="0 0 24 24" fill="none" xmlns="http://www.w3.org/2000/svg">
<path d="M12.136 2.24999C6.65255 2.17593 2.17599 6.65249 2.25005 12.1359C2.32318 17.3948 6.60521 21.6769 11.8641 21.75C17.3485 21.825 21.8241 17.3484 21.7491 11.865C21.6769 6.60515 17.3949 2.32312 12.136 2.24999ZM18.0619 17.5898C18.0433 17.61 18.0204 17.6259 17.9949 17.6362C17.9694 17.6466 17.942 17.6512 17.9145 17.6498C17.887 17.6483 17.8602 17.6409 17.836 17.6279C17.8117 17.615 17.7906 17.5969 17.7741 17.5748C17.3548 17.0263 16.8414 16.5566 16.2577 16.1878C15.0643 15.4219 13.5521 15 12.0001 15C10.448 15 8.93583 15.4219 7.7424 16.1878C7.15874 16.5565 6.64528 17.026 6.22599 17.5744C6.20952 17.5964 6.1884 17.6145 6.16414 17.6275C6.13988 17.6404 6.11306 17.6479 6.0856 17.6493C6.05813 17.6507 6.03069 17.6461 6.00521 17.6358C5.97973 17.6254 5.95685 17.6096 5.93818 17.5894C4.56271 16.1045 3.78356 14.1643 3.75005 12.1406C3.67365 7.57921 7.41661 3.76124 11.9799 3.74999C16.5432 3.73874 20.2501 7.44421 20.2501 12C20.2516 14.0725 19.4701 16.0691 18.0619 17.5898Z" fill="black"/>
<path d="M12 6.75C11.0756 6.75 10.2398 7.09641 9.6459 7.72594C9.05199 8.35547 8.75527 9.22594 8.82231 10.1602C8.95824 12 10.3837 13.5 12 13.5C13.6162 13.5 15.0389 12 15.1776 10.1606C15.247 9.23531 14.9526 8.37281 14.3489 7.73156C13.7526 7.09875 12.9182 6.75 12 6.75Z" fill="black"/>
</svg>
