<svg width="30" height="30" viewBox="0 0 30 30" fill="none" xmlns="http://www.w3.org/2000/svg">
<mask id="mask0_54_587" style="mask-type:luminance" maskUnits="userSpaceOnUse" x="0" y="0" width="30" height="30">
<path d="M0 0H30V30H0V0Z" fill="white"/>
</mask>
<g mask="url(#mask0_54_587)">
<path d="M4.11999 25.7525L12.075 17.7975M22.0925 14.26L19.7112 21.4037C19.6732 21.5182 19.6082 21.6219 19.5216 21.7059C19.435 21.7899 19.3294 21.8518 19.2137 21.8862L4.61624 26.225C4.48473 26.264 4.34502 26.2663 4.21232 26.2315C4.07963 26.1966 3.95903 26.1261 3.86364 26.0275C3.76826 25.9289 3.70175 25.806 3.67135 25.6722C3.64096 25.5384 3.64783 25.3989 3.69124 25.2687L8.43124 11.0512C8.46521 10.9491 8.52074 10.8556 8.59408 10.7768C8.66741 10.6981 8.75682 10.6361 8.85624 10.595L15.59 7.82248C15.7269 7.76594 15.8775 7.7512 16.0227 7.78012C16.168 7.80904 16.3014 7.88032 16.4062 7.98498L21.9112 13.4912C22.01 13.5898 22.0792 13.714 22.1113 13.8498C22.1433 13.9856 22.1368 14.1277 22.0925 14.26Z" stroke="#633DFF" stroke-width="1.5" stroke-linecap="round" stroke-linejoin="round"/>
<path d="M22.24 13.82L25.775 10.2837C26.2437 9.81492 26.507 9.17915 26.507 8.51624C26.507 7.85333 26.2437 7.21756 25.775 6.74874L23.125 4.09624C22.8928 3.86398 22.6172 3.67975 22.3138 3.55405C22.0104 3.42835 21.6853 3.36365 21.3569 3.36365C21.0285 3.36365 20.7033 3.42835 20.3999 3.55405C20.0965 3.67975 19.8209 3.86398 19.5887 4.09624L16.0537 7.63249M14.7262 15.145C14.5521 14.9709 14.3453 14.8328 14.1178 14.7386C13.8903 14.6445 13.6464 14.596 13.4002 14.5961C13.1539 14.5961 12.9101 14.6447 12.6826 14.739C12.4551 14.8333 12.2484 14.9714 12.0744 15.1456C11.9003 15.3198 11.7622 15.5265 11.668 15.7541C11.5738 15.9816 11.5254 16.2254 11.5255 16.4717C11.5255 16.7179 11.5741 16.9618 11.6684 17.1892C11.7626 17.4167 11.9008 17.6234 12.075 17.7975C12.4267 18.1491 12.9037 18.3465 13.4011 18.3464C13.8984 18.3463 14.3753 18.1486 14.7269 17.7969C15.0784 17.4451 15.2759 16.9681 15.2758 16.4708C15.2757 15.9735 15.078 15.4966 14.7262 15.145Z" stroke="#633DFF" stroke-width="1.5" stroke-linecap="round" stroke-linejoin="round"/>
</g>
</svg>
