<svg width="24" height="24" viewBox="0 0 24 24" fill="none" xmlns="http://www.w3.org/2000/svg">
<path d="M14.363 5.65201L15.843 4.17201C16.0287 3.98621 16.2492 3.83882 16.4919 3.73826C16.7346 3.6377 16.9948 3.58594 17.2575 3.58594C17.5202 3.58594 17.7803 3.6377 18.023 3.73826C18.2658 3.83882 18.4863 3.98621 18.672 4.17201L20.086 5.58601C20.4609 5.96107 20.6716 6.46968 20.6716 7.00001C20.6716 7.53034 20.4609 8.03895 20.086 8.41401L18.606 9.89401M14.363 5.65201L4.74699 15.267C4.41497 15.599 4.21036 16.0373 4.16899 16.505L3.92699 19.245C3.914 19.3907 3.9331 19.5374 3.98297 19.6749C4.03283 19.8123 4.11224 19.9372 4.2156 20.0407C4.31896 20.1441 4.44375 20.2236 4.58118 20.2736C4.7186 20.3236 4.86532 20.3429 5.01099 20.33L7.75099 20.088C8.21942 20.0471 8.65846 19.8425 8.99099 19.51L18.606 9.89401M14.363 5.65201L18.606 9.89401" stroke="black" stroke-width="1.5" stroke-linecap="round" stroke-linejoin="round"/>
</svg>
